<?xml version="1.0" standalone="no"?>
<!DOCTYPE svg PUBLIC "-//W3C//DTD SVG 20010904//EN"
 "http://www.w3.org/TR/2001/REC-SVG-20010904/DTD/svg10.dtd">
<svg version="1.0" xmlns="http://www.w3.org/2000/svg"
 width="1309.000000pt" height="980.000000pt" viewBox="0 0 1309.000000 980.000000"
 preserveAspectRatio="xMidYMid meet">

<g transform="translate(0.000000,980.000000) scale(0.100000,-0.100000)"
fill="#000000" stroke="none">
<path d="M6120 8624 c-778 -56 -1483 -330 -2085 -810 -149 -119 -449 -421
-573 -576 -334 -419 -577 -910 -706 -1423 -128 -510 -146 -1075 -50 -1595 46
-247 102 -448 190 -674 138 -353 326 -680 564 -981 125 -157 424 -458 575
-579 473 -377 1013 -629 1600 -745 251 -50 410 -65 705 -65 270 -1 380 7 610
45 1139 186 2131 906 2675 1942 567 1080 567 2394 0 3474 -535 1018 -1500
1730 -2619 1933 -200 36 -367 51 -601 54 -126 2 -255 2 -285 0z m473 -100 c17
-9 128 -52 247 -94 253 -92 416 -160 560 -236 131 -70 286 -170 345 -225 41
-38 45 -46 45 -88 0 -57 -42 -301 -76 -438 -23 -93 -77 -270 -86 -278 -2 -2
-111 -13 -243 -25 -531 -45 -756 -76 -1079 -144 l-68 -14 -187 102 c-332 183
-414 224 -634 320 -264 114 -307 138 -307 170 0 96 195 529 287 636 l35 40
-34 0 c-68 0 -509 -98 -727 -161 -57 -16 -108 -28 -114 -26 -16 5 320 171 458
224 348 137 644 206 1045 246 19 2 140 5 268 5 198 2 238 0 265 -14z m1508
-703 c101 -29 196 -66 581 -225 l187 -78 94 -102 c278 -301 466 -572 636 -916
l76 -155 -2 -97 c-2 -123 -20 -297 -39 -370 -8 -32 -32 -97 -53 -145 -33 -77
-41 -88 -62 -86 -13 0 -154 63 -314 138 -355 168 -457 204 -600 212 -95 5
-106 8 -129 32 -13 14 -87 130 -163 256 -187 309 -186 308 -377 564 -93 124
-172 236 -178 250 -17 47 25 289 97 554 52 189 56 197 103 197 21 0 85 -13
143 -29z m-3009 -425 c24 -8 78 -24 121 -35 163 -44 797 -355 885 -434 34 -31
42 -75 52 -297 11 -216 -1 -798 -20 -960 -9 -83 -10 -86 -53 -125 -49 -45
-148 -112 -442 -300 -268 -172 -328 -215 -507 -361 -93 -76 -181 -139 -225
-161 -65 -32 -78 -35 -140 -31 -60 3 -85 11 -193 65 -212 105 -611 341 -708
420 -83 68 -77 9 -73 717 l3 631 33 40 c153 186 406 379 835 635 113 68 225
136 250 153 42 29 101 56 127 57 7 0 32 -6 55 -14z m-1651 -629 c173 -107 227
-144 237 -165 19 -35 20 -114 13 -757 -7 -569 -10 -666 -24 -702 -9 -24 -72
-141 -140 -260 -217 -380 -261 -481 -287 -653 -13 -88 -30 -130 -54 -130 -22
0 -146 87 -292 203 -151 120 -135 88 -154 322 -51 643 85 1336 377 1918 65
132 170 307 182 307 4 0 68 -37 142 -83z m5370 -962 c314 -73 429 -129 600
-292 85 -82 95 -101 123 -248 41 -210 102 -940 94 -1113 -6 -120 -31 -169
-154 -297 -53 -55 -164 -183 -247 -285 -186 -229 -335 -382 -402 -411 -59 -26
-118 -22 -280 21 -216 57 -654 228 -685 267 -16 20 -20 41 -20 97 0 164 -42
492 -134 1046 -33 202 -41 269 -32 280 6 8 197 227 424 487 248 282 424 476
440 482 38 15 96 8 273 -34z m-2519 -415 c286 -96 1148 -469 1233 -534 29 -22
36 -37 54 -114 42 -179 143 -858 157 -1053 8 -116 -7 -215 -44 -282 -39 -71
-155 -176 -393 -354 -380 -284 -602 -421 -731 -452 -103 -24 -117 -20 -415
118 -321 149 -686 305 -888 380 -185 69 -188 70 -202 114 -20 59 -91 539 -102
687 -6 74 -13 250 -17 391 l-7 256 37 33 c145 132 1082 800 1161 828 46 16 60
14 157 -18z m-3437 -1205 c22 -18 94 -64 160 -103 140 -81 193 -134 237 -230
147 -327 261 -497 606 -901 63 -74 121 -149 128 -167 18 -43 21 -644 3 -644
-21 0 -357 347 -457 472 -309 388 -534 826 -667 1299 -22 78 -75 301 -75 316
0 6 21 -7 65 -42z m6995 -191 c0 -24 -57 -214 -100 -334 -230 -641 -634 -1201
-1180 -1635 l-95 -75 -15 22 c-8 13 -30 37 -48 55 -40 36 -38 41 38 139 186
237 320 502 395 776 13 49 27 69 96 140 45 46 199 227 342 403 144 176 307
366 362 423 l100 102 53 0 c41 0 52 -3 52 -16z m-4555 -996 c150 -59 333 -143
695 -318 190 -92 366 -177 393 -189 31 -15 58 -38 78 -67 27 -40 132 -278 241
-549 44 -108 60 -204 38 -230 -11 -13 -360 -132 -824 -280 l-179 -57 -86 17
c-376 73 -758 216 -1086 405 -123 70 -313 196 -392 258 l-51 41 5 78 c3 43 -2
158 -11 256 -19 210 -20 327 -5 361 14 30 1 25 379 150 241 80 440 138 550
159 66 14 166 -1 255 -35z m3059 -1094 c27 -10 17 -28 -32 -58 -248 -154 -439
-253 -657 -339 -319 -127 -668 -209 -1013 -238 -157 -13 -651 -8 -690 8 -19 7
-6 13 75 32 54 13 241 70 416 127 286 94 328 106 430 115 258 24 902 160 1142
242 39 13 111 45 160 70 85 43 133 55 169 41z"/>
</g>
</svg>
